G04 EAGLE Gerber RS-274X export*
G75*
%MOMM*%
%FSLAX34Y34*%
%LPD*%
%INTop Copper*%
%IPPOS*%
%AMOC8*
5,1,8,0,0,1.08239X$1,22.5*%
G01*
%ADD10R,0.900000X0.850000*%
%ADD11R,0.850000X0.900000*%
%ADD12R,0.590000X0.350000*%
%ADD13R,0.350000X0.590000*%
%ADD14P,1.814519X8X292.500000*%
%ADD15R,1.100000X1.000000*%
%ADD16C,0.254000*%
%ADD17C,0.756400*%

G36*
X150488Y10176D02*
X150488Y10176D01*
X150607Y10183D01*
X150645Y10196D01*
X150686Y10201D01*
X150796Y10244D01*
X150909Y10281D01*
X150944Y10303D01*
X150981Y10318D01*
X151077Y10387D01*
X151178Y10451D01*
X151206Y10481D01*
X151239Y10504D01*
X151315Y10596D01*
X151396Y10683D01*
X151416Y10718D01*
X151441Y10749D01*
X151492Y10857D01*
X151550Y10961D01*
X151560Y11001D01*
X151577Y11037D01*
X151599Y11154D01*
X151629Y11269D01*
X151633Y11329D01*
X151637Y11349D01*
X151635Y11370D01*
X151639Y11430D01*
X151639Y140870D01*
X151624Y140988D01*
X151617Y141107D01*
X151604Y141145D01*
X151599Y141186D01*
X151556Y141296D01*
X151519Y141409D01*
X151497Y141444D01*
X151482Y141481D01*
X151413Y141577D01*
X151349Y141678D01*
X151319Y141706D01*
X151296Y141739D01*
X151204Y141815D01*
X151117Y141896D01*
X151082Y141916D01*
X151051Y141941D01*
X150943Y141992D01*
X150839Y142050D01*
X150799Y142060D01*
X150763Y142077D01*
X150646Y142099D01*
X150531Y142129D01*
X150471Y142133D01*
X150451Y142137D01*
X150430Y142135D01*
X150370Y142139D01*
X11430Y142139D01*
X11312Y142124D01*
X11193Y142117D01*
X11155Y142104D01*
X11114Y142099D01*
X11004Y142056D01*
X10891Y142019D01*
X10856Y141997D01*
X10819Y141982D01*
X10723Y141913D01*
X10622Y141849D01*
X10594Y141819D01*
X10561Y141796D01*
X10485Y141704D01*
X10404Y141617D01*
X10384Y141582D01*
X10359Y141551D01*
X10308Y141443D01*
X10250Y141339D01*
X10240Y141299D01*
X10223Y141263D01*
X10201Y141146D01*
X10171Y141031D01*
X10167Y140971D01*
X10163Y140951D01*
X10165Y140930D01*
X10161Y140870D01*
X10161Y89773D01*
X10178Y89636D01*
X10191Y89497D01*
X10198Y89478D01*
X10201Y89458D01*
X10252Y89329D01*
X10299Y89198D01*
X10310Y89181D01*
X10318Y89162D01*
X10399Y89050D01*
X10477Y88935D01*
X10493Y88921D01*
X10504Y88905D01*
X10612Y88816D01*
X10716Y88724D01*
X10734Y88715D01*
X10749Y88702D01*
X10875Y88643D01*
X10999Y88580D01*
X11019Y88575D01*
X11037Y88566D01*
X11173Y88540D01*
X11309Y88510D01*
X11330Y88510D01*
X11349Y88507D01*
X11488Y88515D01*
X11627Y88520D01*
X11647Y88525D01*
X11667Y88526D01*
X11799Y88569D01*
X11933Y88608D01*
X11950Y88618D01*
X11969Y88624D01*
X12087Y88699D01*
X12207Y88769D01*
X12228Y88788D01*
X12238Y88795D01*
X12252Y88810D01*
X12327Y88876D01*
X19690Y96239D01*
X20706Y96239D01*
X20824Y96254D01*
X20943Y96261D01*
X20981Y96274D01*
X21022Y96279D01*
X21132Y96322D01*
X21245Y96359D01*
X21280Y96381D01*
X21317Y96396D01*
X21413Y96465D01*
X21514Y96529D01*
X21542Y96559D01*
X21575Y96582D01*
X21651Y96674D01*
X21732Y96761D01*
X21752Y96796D01*
X21777Y96827D01*
X21828Y96935D01*
X21886Y97039D01*
X21896Y97079D01*
X21913Y97115D01*
X21935Y97232D01*
X21965Y97347D01*
X21969Y97407D01*
X21973Y97427D01*
X21971Y97448D01*
X21975Y97508D01*
X21975Y106282D01*
X22868Y107175D01*
X28130Y107175D01*
X28248Y107190D01*
X28367Y107197D01*
X28405Y107210D01*
X28446Y107215D01*
X28556Y107258D01*
X28669Y107295D01*
X28704Y107317D01*
X28741Y107332D01*
X28837Y107401D01*
X28938Y107465D01*
X28966Y107495D01*
X28999Y107518D01*
X29075Y107610D01*
X29156Y107697D01*
X29176Y107732D01*
X29201Y107763D01*
X29252Y107871D01*
X29310Y107975D01*
X29320Y108015D01*
X29337Y108051D01*
X29359Y108168D01*
X29389Y108283D01*
X29393Y108343D01*
X29397Y108363D01*
X29395Y108384D01*
X29399Y108444D01*
X29399Y111953D01*
X31408Y113962D01*
X35239Y117793D01*
X35324Y117902D01*
X35413Y118009D01*
X35421Y118028D01*
X35434Y118044D01*
X35489Y118172D01*
X35548Y118297D01*
X35552Y118317D01*
X35560Y118336D01*
X35582Y118474D01*
X35608Y118610D01*
X35607Y118630D01*
X35610Y118650D01*
X35597Y118789D01*
X35588Y118927D01*
X35582Y118946D01*
X35580Y118966D01*
X35533Y119098D01*
X35490Y119229D01*
X35479Y119247D01*
X35473Y119266D01*
X35395Y119381D01*
X35320Y119498D01*
X35305Y119512D01*
X35294Y119529D01*
X35190Y119621D01*
X35089Y119716D01*
X35071Y119726D01*
X35056Y119739D01*
X34931Y119803D01*
X34810Y119870D01*
X34790Y119875D01*
X34772Y119884D01*
X34637Y119914D01*
X34502Y119949D01*
X34474Y119951D01*
X34462Y119954D01*
X34442Y119953D01*
X34424Y119954D01*
X34424Y126145D01*
X34409Y126263D01*
X34402Y126382D01*
X34389Y126420D01*
X34384Y126460D01*
X34341Y126571D01*
X34304Y126684D01*
X34282Y126718D01*
X34267Y126756D01*
X34198Y126852D01*
X34134Y126953D01*
X34104Y126981D01*
X34086Y127005D01*
X34100Y127021D01*
X34181Y127108D01*
X34201Y127143D01*
X34226Y127175D01*
X34277Y127282D01*
X34335Y127387D01*
X34345Y127426D01*
X34362Y127462D01*
X34384Y127579D01*
X34414Y127695D01*
X34418Y127755D01*
X34422Y127775D01*
X34420Y127795D01*
X34424Y127855D01*
X34424Y134041D01*
X36884Y134041D01*
X37531Y133868D01*
X38110Y133533D01*
X38247Y133396D01*
X38325Y133336D01*
X38397Y133268D01*
X38450Y133239D01*
X38498Y133202D01*
X38589Y133162D01*
X38676Y133114D01*
X38734Y133099D01*
X38790Y133075D01*
X38888Y133060D01*
X38983Y133035D01*
X39083Y133029D01*
X39104Y133025D01*
X39116Y133027D01*
X39144Y133025D01*
X48782Y133025D01*
X49675Y132132D01*
X49675Y131064D01*
X49690Y130946D01*
X49697Y130827D01*
X49710Y130789D01*
X49715Y130748D01*
X49758Y130638D01*
X49795Y130525D01*
X49817Y130490D01*
X49832Y130453D01*
X49901Y130357D01*
X49965Y130256D01*
X49995Y130228D01*
X50018Y130195D01*
X50110Y130119D01*
X50197Y130038D01*
X50232Y130018D01*
X50263Y129993D01*
X50371Y129942D01*
X50475Y129884D01*
X50515Y129874D01*
X50551Y129857D01*
X50668Y129835D01*
X50783Y129805D01*
X50843Y129801D01*
X50863Y129797D01*
X50884Y129799D01*
X50944Y129795D01*
X57766Y129795D01*
X57768Y129793D01*
X57802Y129756D01*
X57847Y129726D01*
X57861Y129713D01*
X57895Y129694D01*
X57980Y129629D01*
X58026Y129609D01*
X58067Y129581D01*
X58171Y129546D01*
X58272Y129502D01*
X58321Y129494D01*
X58368Y129478D01*
X58477Y129470D01*
X58586Y129452D01*
X58636Y129457D01*
X58685Y129453D01*
X58793Y129472D01*
X58903Y129482D01*
X58950Y129499D01*
X58998Y129507D01*
X59099Y129553D01*
X59202Y129590D01*
X59243Y129618D01*
X59288Y129638D01*
X59374Y129707D01*
X59465Y129768D01*
X59498Y129806D01*
X59537Y129837D01*
X59603Y129924D01*
X59676Y130007D01*
X59697Y130049D01*
X59705Y130059D01*
X59708Y130063D01*
X59728Y130091D01*
X59799Y130235D01*
X60201Y131206D01*
X61694Y132699D01*
X63644Y133507D01*
X65756Y133507D01*
X67706Y132699D01*
X69038Y131366D01*
X69117Y131306D01*
X69189Y131238D01*
X69242Y131209D01*
X69290Y131171D01*
X69381Y131132D01*
X69467Y131084D01*
X69526Y131069D01*
X69581Y131045D01*
X69679Y131030D01*
X69775Y131005D01*
X69875Y130999D01*
X69896Y130995D01*
X69908Y130996D01*
X69936Y130995D01*
X114258Y130995D01*
X121074Y124179D01*
X121168Y124106D01*
X121257Y124027D01*
X121293Y124009D01*
X121325Y123984D01*
X121434Y123937D01*
X121540Y123882D01*
X121580Y123874D01*
X121617Y123857D01*
X121734Y123839D01*
X121850Y123813D01*
X121891Y123814D01*
X121931Y123808D01*
X122050Y123819D01*
X122168Y123822D01*
X122207Y123834D01*
X122247Y123837D01*
X122360Y123878D01*
X122474Y123911D01*
X122509Y123931D01*
X122547Y123945D01*
X122645Y124012D01*
X122748Y124072D01*
X122793Y124112D01*
X122810Y124124D01*
X122823Y124139D01*
X122869Y124179D01*
X122897Y124207D01*
X131103Y124207D01*
X136907Y118403D01*
X136907Y110197D01*
X131103Y104393D01*
X122897Y104393D01*
X117093Y110197D01*
X117093Y118403D01*
X117121Y118431D01*
X117194Y118526D01*
X117273Y118615D01*
X117291Y118651D01*
X117316Y118683D01*
X117363Y118792D01*
X117418Y118898D01*
X117426Y118937D01*
X117442Y118975D01*
X117461Y119092D01*
X117487Y119208D01*
X117486Y119249D01*
X117492Y119289D01*
X117481Y119407D01*
X117478Y119526D01*
X117466Y119565D01*
X117463Y119605D01*
X117422Y119717D01*
X117389Y119832D01*
X117369Y119866D01*
X117355Y119905D01*
X117288Y120003D01*
X117228Y120106D01*
X117188Y120151D01*
X117176Y120168D01*
X117161Y120181D01*
X117121Y120226D01*
X112314Y125033D01*
X112236Y125094D01*
X112164Y125162D01*
X112111Y125191D01*
X112063Y125228D01*
X111972Y125268D01*
X111885Y125316D01*
X111827Y125331D01*
X111771Y125355D01*
X111673Y125370D01*
X111577Y125395D01*
X111477Y125401D01*
X111457Y125405D01*
X111445Y125403D01*
X111417Y125405D01*
X107569Y125405D01*
X107432Y125388D01*
X107293Y125375D01*
X107274Y125368D01*
X107254Y125365D01*
X107125Y125314D01*
X106994Y125267D01*
X106977Y125256D01*
X106958Y125248D01*
X106846Y125167D01*
X106730Y125089D01*
X106717Y125073D01*
X106701Y125061D01*
X106612Y124954D01*
X106520Y124850D01*
X106511Y124832D01*
X106498Y124817D01*
X106439Y124691D01*
X106375Y124567D01*
X106371Y124547D01*
X106362Y124529D01*
X106336Y124393D01*
X106306Y124257D01*
X106306Y124236D01*
X106303Y124216D01*
X106311Y124078D01*
X106315Y123939D01*
X106321Y123919D01*
X106322Y123899D01*
X106365Y123767D01*
X106404Y123633D01*
X106414Y123616D01*
X106420Y123597D01*
X106495Y123479D01*
X106565Y123359D01*
X106584Y123338D01*
X106590Y123328D01*
X106605Y123314D01*
X106672Y123238D01*
X111507Y118403D01*
X111507Y110197D01*
X105703Y104393D01*
X97497Y104393D01*
X97469Y104421D01*
X97374Y104494D01*
X97285Y104573D01*
X97249Y104591D01*
X97217Y104616D01*
X97108Y104663D01*
X97002Y104718D01*
X96963Y104726D01*
X96925Y104742D01*
X96808Y104761D01*
X96692Y104787D01*
X96651Y104786D01*
X96611Y104792D01*
X96493Y104781D01*
X96374Y104778D01*
X96335Y104766D01*
X96295Y104763D01*
X96183Y104722D01*
X96068Y104689D01*
X96034Y104669D01*
X95995Y104655D01*
X95922Y104605D01*
X83494Y104605D01*
X83376Y104590D01*
X83257Y104583D01*
X83219Y104570D01*
X83178Y104565D01*
X83068Y104522D01*
X82955Y104485D01*
X82920Y104463D01*
X82883Y104448D01*
X82787Y104379D01*
X82686Y104315D01*
X82658Y104285D01*
X82625Y104262D01*
X82549Y104170D01*
X82468Y104083D01*
X82448Y104048D01*
X82423Y104017D01*
X82372Y103909D01*
X82314Y103805D01*
X82304Y103765D01*
X82287Y103729D01*
X82265Y103612D01*
X82235Y103497D01*
X82231Y103437D01*
X82227Y103417D01*
X82229Y103396D01*
X82225Y103336D01*
X82225Y102644D01*
X82237Y102546D01*
X82240Y102447D01*
X82257Y102389D01*
X82265Y102329D01*
X82301Y102237D01*
X82329Y102141D01*
X82359Y102089D01*
X82382Y102033D01*
X82440Y101953D01*
X82490Y101867D01*
X82556Y101792D01*
X82568Y101776D01*
X82578Y101768D01*
X82596Y101747D01*
X82733Y101610D01*
X83068Y101031D01*
X83241Y100384D01*
X83241Y97924D01*
X77055Y97924D01*
X76937Y97909D01*
X76818Y97902D01*
X76780Y97889D01*
X76740Y97884D01*
X76629Y97841D01*
X76516Y97804D01*
X76482Y97782D01*
X76444Y97767D01*
X76348Y97698D01*
X76247Y97634D01*
X76219Y97604D01*
X76187Y97581D01*
X76111Y97489D01*
X76029Y97402D01*
X76010Y97367D01*
X75984Y97336D01*
X75933Y97228D01*
X75876Y97124D01*
X75866Y97084D01*
X75848Y97048D01*
X75826Y96931D01*
X75796Y96816D01*
X75792Y96756D01*
X75789Y96736D01*
X75790Y96715D01*
X75786Y96655D01*
X75786Y94945D01*
X75801Y94827D01*
X75808Y94708D01*
X75821Y94670D01*
X75826Y94629D01*
X75870Y94519D01*
X75906Y94406D01*
X75928Y94371D01*
X75943Y94334D01*
X76013Y94237D01*
X76076Y94137D01*
X76106Y94109D01*
X76130Y94076D01*
X76221Y94000D01*
X76308Y93919D01*
X76343Y93899D01*
X76375Y93874D01*
X76482Y93823D01*
X76587Y93765D01*
X76626Y93755D01*
X76662Y93738D01*
X76779Y93716D01*
X76895Y93686D01*
X76955Y93682D01*
X76975Y93678D01*
X76995Y93680D01*
X77055Y93676D01*
X83241Y93676D01*
X83241Y91388D01*
X83256Y91270D01*
X83263Y91151D01*
X83276Y91113D01*
X83281Y91072D01*
X83324Y90962D01*
X83361Y90849D01*
X83383Y90814D01*
X83398Y90777D01*
X83467Y90681D01*
X83531Y90580D01*
X83561Y90552D01*
X83584Y90519D01*
X83676Y90443D01*
X83763Y90362D01*
X83798Y90342D01*
X83829Y90317D01*
X83937Y90266D01*
X84041Y90208D01*
X84081Y90198D01*
X84117Y90181D01*
X84234Y90159D01*
X84349Y90129D01*
X84409Y90125D01*
X84429Y90121D01*
X84450Y90123D01*
X84510Y90119D01*
X88533Y90119D01*
X88620Y90051D01*
X88727Y89963D01*
X88746Y89954D01*
X88762Y89942D01*
X88890Y89886D01*
X89015Y89827D01*
X89035Y89823D01*
X89054Y89815D01*
X89192Y89793D01*
X89328Y89767D01*
X89348Y89769D01*
X89368Y89765D01*
X89507Y89778D01*
X89645Y89787D01*
X89664Y89793D01*
X89684Y89795D01*
X89816Y89842D01*
X89947Y89885D01*
X89965Y89896D01*
X89984Y89903D01*
X90099Y89981D01*
X90216Y90055D01*
X90230Y90070D01*
X90247Y90081D01*
X90339Y90185D01*
X90434Y90287D01*
X90444Y90305D01*
X90457Y90320D01*
X90521Y90444D01*
X90588Y90565D01*
X90593Y90585D01*
X90602Y90603D01*
X90632Y90739D01*
X90667Y90873D01*
X90669Y90901D01*
X90672Y90913D01*
X90671Y90934D01*
X90677Y91034D01*
X90677Y93424D01*
X97076Y99823D01*
X99061Y99823D01*
X99061Y90170D01*
X99076Y90052D01*
X99083Y89933D01*
X99096Y89895D01*
X99101Y89855D01*
X99144Y89744D01*
X99181Y89631D01*
X99203Y89597D01*
X99218Y89559D01*
X99288Y89463D01*
X99351Y89362D01*
X99381Y89334D01*
X99404Y89302D01*
X99496Y89226D01*
X99583Y89144D01*
X99618Y89125D01*
X99649Y89099D01*
X99757Y89048D01*
X99861Y88991D01*
X99901Y88980D01*
X99937Y88963D01*
X100054Y88941D01*
X100169Y88911D01*
X100230Y88907D01*
X100250Y88903D01*
X100270Y88905D01*
X100330Y88901D01*
X101601Y88901D01*
X101601Y87630D01*
X101616Y87512D01*
X101623Y87393D01*
X101636Y87355D01*
X101641Y87314D01*
X101685Y87204D01*
X101721Y87091D01*
X101743Y87056D01*
X101758Y87019D01*
X101828Y86923D01*
X101891Y86822D01*
X101921Y86794D01*
X101945Y86761D01*
X102036Y86686D01*
X102123Y86604D01*
X102158Y86584D01*
X102190Y86559D01*
X102297Y86508D01*
X102402Y86450D01*
X102441Y86440D01*
X102477Y86423D01*
X102594Y86401D01*
X102709Y86371D01*
X102770Y86367D01*
X102790Y86363D01*
X102810Y86365D01*
X102870Y86361D01*
X112523Y86361D01*
X112523Y84376D01*
X110833Y82685D01*
X110747Y82576D01*
X110659Y82469D01*
X110650Y82450D01*
X110638Y82434D01*
X110582Y82306D01*
X110523Y82181D01*
X110519Y82161D01*
X110511Y82142D01*
X110489Y82004D01*
X110463Y81868D01*
X110465Y81848D01*
X110461Y81828D01*
X110474Y81689D01*
X110483Y81551D01*
X110489Y81532D01*
X110491Y81512D01*
X110538Y81380D01*
X110581Y81249D01*
X110592Y81231D01*
X110599Y81212D01*
X110677Y81097D01*
X110751Y80980D01*
X110766Y80966D01*
X110777Y80949D01*
X110882Y80857D01*
X110983Y80762D01*
X111001Y80752D01*
X111016Y80739D01*
X111140Y80675D01*
X111261Y80608D01*
X111281Y80603D01*
X111299Y80594D01*
X111435Y80564D01*
X111569Y80529D01*
X111597Y80527D01*
X111609Y80524D01*
X111630Y80525D01*
X111730Y80519D01*
X114141Y80519D01*
X114239Y80531D01*
X114338Y80534D01*
X114396Y80551D01*
X114456Y80559D01*
X114548Y80595D01*
X114643Y80623D01*
X114696Y80653D01*
X114752Y80676D01*
X114832Y80734D01*
X114917Y80784D01*
X114993Y80850D01*
X115009Y80862D01*
X115017Y80872D01*
X115038Y80890D01*
X117121Y82974D01*
X117194Y83068D01*
X117273Y83157D01*
X117291Y83193D01*
X117316Y83225D01*
X117363Y83334D01*
X117418Y83440D01*
X117426Y83480D01*
X117443Y83517D01*
X117461Y83634D01*
X117487Y83750D01*
X117486Y83791D01*
X117492Y83831D01*
X117481Y83950D01*
X117478Y84068D01*
X117466Y84107D01*
X117463Y84147D01*
X117422Y84260D01*
X117389Y84374D01*
X117369Y84409D01*
X117355Y84447D01*
X117288Y84545D01*
X117228Y84648D01*
X117188Y84693D01*
X117176Y84710D01*
X117161Y84723D01*
X117121Y84769D01*
X117093Y84797D01*
X117093Y93003D01*
X122897Y98807D01*
X131103Y98807D01*
X136907Y93003D01*
X136907Y84797D01*
X131103Y78993D01*
X122897Y78993D01*
X122869Y79021D01*
X122774Y79094D01*
X122685Y79173D01*
X122649Y79191D01*
X122617Y79216D01*
X122508Y79263D01*
X122402Y79318D01*
X122363Y79326D01*
X122325Y79342D01*
X122208Y79361D01*
X122092Y79387D01*
X122051Y79386D01*
X122011Y79392D01*
X121893Y79381D01*
X121774Y79378D01*
X121735Y79366D01*
X121695Y79363D01*
X121583Y79322D01*
X121468Y79289D01*
X121434Y79269D01*
X121395Y79255D01*
X121297Y79188D01*
X121194Y79128D01*
X121149Y79088D01*
X121132Y79076D01*
X121119Y79061D01*
X121074Y79021D01*
X116982Y74929D01*
X107245Y74929D01*
X107108Y74912D01*
X106969Y74899D01*
X106950Y74892D01*
X106930Y74889D01*
X106801Y74838D01*
X106670Y74791D01*
X106653Y74780D01*
X106634Y74772D01*
X106521Y74691D01*
X106406Y74613D01*
X106393Y74597D01*
X106377Y74586D01*
X106288Y74478D01*
X106196Y74374D01*
X106187Y74356D01*
X106174Y74341D01*
X106115Y74215D01*
X106051Y74091D01*
X106047Y74071D01*
X106038Y74053D01*
X106012Y73917D01*
X105982Y73781D01*
X105982Y73760D01*
X105978Y73741D01*
X105987Y73602D01*
X105991Y73463D01*
X105997Y73443D01*
X105998Y73423D01*
X106041Y73291D01*
X106080Y73157D01*
X106090Y73140D01*
X106096Y73121D01*
X106171Y73003D01*
X106241Y72883D01*
X106260Y72862D01*
X106266Y72852D01*
X106281Y72838D01*
X106348Y72763D01*
X111507Y67603D01*
X111507Y59397D01*
X105703Y53593D01*
X97497Y53593D01*
X97469Y53621D01*
X97374Y53694D01*
X97285Y53773D01*
X97249Y53791D01*
X97217Y53816D01*
X97108Y53863D01*
X97002Y53918D01*
X96963Y53926D01*
X96925Y53942D01*
X96808Y53961D01*
X96692Y53987D01*
X96651Y53986D01*
X96611Y53992D01*
X96493Y53981D01*
X96374Y53978D01*
X96335Y53966D01*
X96295Y53963D01*
X96183Y53922D01*
X96068Y53889D01*
X96034Y53869D01*
X95995Y53855D01*
X95897Y53788D01*
X95794Y53728D01*
X95749Y53688D01*
X95732Y53676D01*
X95719Y53661D01*
X95674Y53621D01*
X92598Y50545D01*
X56164Y50545D01*
X56046Y50530D01*
X55927Y50523D01*
X55889Y50510D01*
X55848Y50505D01*
X55738Y50462D01*
X55625Y50425D01*
X55590Y50403D01*
X55553Y50388D01*
X55457Y50319D01*
X55356Y50255D01*
X55328Y50225D01*
X55295Y50202D01*
X55219Y50110D01*
X55138Y50023D01*
X55118Y49988D01*
X55093Y49957D01*
X55042Y49849D01*
X54984Y49745D01*
X54974Y49705D01*
X54957Y49669D01*
X54935Y49552D01*
X54905Y49437D01*
X54901Y49377D01*
X54897Y49357D01*
X54899Y49336D01*
X54895Y49276D01*
X54895Y47708D01*
X54002Y46815D01*
X53605Y46815D01*
X53467Y46798D01*
X53329Y46785D01*
X53310Y46778D01*
X53290Y46775D01*
X53161Y46724D01*
X53030Y46677D01*
X53013Y46666D01*
X52994Y46658D01*
X52882Y46577D01*
X52766Y46499D01*
X52753Y46483D01*
X52737Y46472D01*
X52648Y46364D01*
X52556Y46260D01*
X52547Y46242D01*
X52534Y46227D01*
X52475Y46101D01*
X52411Y45977D01*
X52407Y45957D01*
X52398Y45939D01*
X52372Y45802D01*
X52342Y45667D01*
X52342Y45646D01*
X52339Y45627D01*
X52347Y45488D01*
X52351Y45349D01*
X52357Y45329D01*
X52358Y45309D01*
X52401Y45177D01*
X52440Y45043D01*
X52450Y45026D01*
X52456Y45007D01*
X52531Y44889D01*
X52601Y44769D01*
X52620Y44748D01*
X52627Y44738D01*
X52642Y44724D01*
X52708Y44649D01*
X53625Y43732D01*
X53625Y42164D01*
X53640Y42046D01*
X53647Y41927D01*
X53660Y41889D01*
X53665Y41848D01*
X53708Y41738D01*
X53745Y41625D01*
X53767Y41590D01*
X53782Y41553D01*
X53851Y41457D01*
X53915Y41356D01*
X53945Y41328D01*
X53968Y41295D01*
X54060Y41219D01*
X54147Y41138D01*
X54182Y41118D01*
X54213Y41093D01*
X54321Y41042D01*
X54425Y40984D01*
X54465Y40974D01*
X54501Y40957D01*
X54618Y40935D01*
X54733Y40905D01*
X54793Y40901D01*
X54813Y40897D01*
X54834Y40899D01*
X54894Y40895D01*
X90424Y40895D01*
X90542Y40910D01*
X90661Y40917D01*
X90699Y40930D01*
X90740Y40935D01*
X90850Y40978D01*
X90963Y41015D01*
X90998Y41037D01*
X91035Y41052D01*
X91131Y41121D01*
X91232Y41185D01*
X91260Y41215D01*
X91293Y41238D01*
X91369Y41330D01*
X91450Y41417D01*
X91470Y41452D01*
X91495Y41483D01*
X91546Y41591D01*
X91604Y41695D01*
X91614Y41735D01*
X91631Y41771D01*
X91653Y41888D01*
X91683Y42003D01*
X91687Y42063D01*
X91691Y42083D01*
X91689Y42104D01*
X91693Y42164D01*
X91693Y42203D01*
X97497Y48007D01*
X105703Y48007D01*
X107815Y45896D01*
X107924Y45810D01*
X108031Y45722D01*
X108050Y45713D01*
X108066Y45701D01*
X108194Y45645D01*
X108319Y45586D01*
X108339Y45582D01*
X108358Y45574D01*
X108496Y45552D01*
X108632Y45526D01*
X108652Y45528D01*
X108672Y45525D01*
X108811Y45538D01*
X108949Y45546D01*
X108968Y45552D01*
X108988Y45554D01*
X109120Y45602D01*
X109251Y45644D01*
X109269Y45655D01*
X109288Y45662D01*
X109403Y45740D01*
X109520Y45814D01*
X109534Y45829D01*
X109551Y45841D01*
X109643Y45945D01*
X109738Y46046D01*
X109748Y46064D01*
X109761Y46079D01*
X109825Y46203D01*
X109892Y46325D01*
X109897Y46344D01*
X109906Y46362D01*
X109936Y46498D01*
X109971Y46632D01*
X109973Y46661D01*
X109976Y46673D01*
X109975Y46693D01*
X109981Y46793D01*
X109981Y50434D01*
X117121Y57574D01*
X117194Y57668D01*
X117273Y57757D01*
X117291Y57793D01*
X117316Y57825D01*
X117363Y57934D01*
X117418Y58040D01*
X117426Y58080D01*
X117443Y58117D01*
X117461Y58234D01*
X117487Y58350D01*
X117486Y58391D01*
X117492Y58431D01*
X117481Y58550D01*
X117478Y58668D01*
X117466Y58707D01*
X117463Y58747D01*
X117422Y58860D01*
X117389Y58974D01*
X117369Y59009D01*
X117355Y59047D01*
X117288Y59145D01*
X117228Y59248D01*
X117188Y59293D01*
X117176Y59310D01*
X117161Y59323D01*
X117121Y59369D01*
X117093Y59397D01*
X117093Y67603D01*
X122897Y73407D01*
X131103Y73407D01*
X136907Y67603D01*
X136907Y59397D01*
X131103Y53593D01*
X122897Y53593D01*
X122869Y53621D01*
X122774Y53694D01*
X122685Y53773D01*
X122649Y53791D01*
X122617Y53816D01*
X122508Y53863D01*
X122402Y53918D01*
X122363Y53926D01*
X122325Y53942D01*
X122208Y53961D01*
X122092Y53987D01*
X122051Y53986D01*
X122011Y53992D01*
X121893Y53981D01*
X121774Y53978D01*
X121735Y53966D01*
X121695Y53963D01*
X121583Y53922D01*
X121468Y53889D01*
X121434Y53869D01*
X121395Y53855D01*
X121297Y53788D01*
X121194Y53728D01*
X121149Y53688D01*
X121132Y53676D01*
X121119Y53661D01*
X121074Y53621D01*
X115942Y48490D01*
X115882Y48412D01*
X115814Y48340D01*
X115785Y48287D01*
X115748Y48239D01*
X115708Y48148D01*
X115660Y48061D01*
X115645Y48003D01*
X115621Y47947D01*
X115606Y47849D01*
X115581Y47753D01*
X115575Y47653D01*
X115571Y47633D01*
X115573Y47621D01*
X115571Y47593D01*
X115571Y43745D01*
X115588Y43608D01*
X115601Y43469D01*
X115608Y43450D01*
X115611Y43430D01*
X115662Y43301D01*
X115709Y43170D01*
X115720Y43153D01*
X115728Y43134D01*
X115809Y43021D01*
X115887Y42906D01*
X115903Y42893D01*
X115914Y42877D01*
X116022Y42788D01*
X116126Y42696D01*
X116144Y42687D01*
X116159Y42674D01*
X116285Y42615D01*
X116409Y42551D01*
X116429Y42547D01*
X116447Y42538D01*
X116583Y42512D01*
X116719Y42482D01*
X116740Y42482D01*
X116759Y42478D01*
X116898Y42487D01*
X117037Y42491D01*
X117057Y42497D01*
X117077Y42498D01*
X117209Y42541D01*
X117343Y42580D01*
X117360Y42590D01*
X117379Y42596D01*
X117497Y42671D01*
X117617Y42741D01*
X117638Y42760D01*
X117648Y42766D01*
X117662Y42781D01*
X117737Y42848D01*
X122897Y48007D01*
X131103Y48007D01*
X136907Y42203D01*
X136907Y33997D01*
X131103Y28193D01*
X130424Y28193D01*
X130326Y28181D01*
X130227Y28178D01*
X130169Y28161D01*
X130108Y28153D01*
X130016Y28117D01*
X129921Y28089D01*
X129869Y28059D01*
X129813Y28036D01*
X129733Y27978D01*
X129647Y27928D01*
X129572Y27862D01*
X129555Y27850D01*
X129548Y27840D01*
X129527Y27822D01*
X129362Y27657D01*
X127787Y26081D01*
X127786Y26081D01*
X121770Y20065D01*
X23484Y20065D01*
X21475Y22074D01*
X12327Y31222D01*
X12218Y31307D01*
X12111Y31395D01*
X12092Y31404D01*
X12076Y31416D01*
X11948Y31472D01*
X11823Y31531D01*
X11803Y31535D01*
X11784Y31543D01*
X11646Y31565D01*
X11510Y31591D01*
X11490Y31589D01*
X11470Y31593D01*
X11331Y31580D01*
X11193Y31571D01*
X11174Y31565D01*
X11154Y31563D01*
X11022Y31516D01*
X10891Y31473D01*
X10873Y31462D01*
X10854Y31455D01*
X10739Y31377D01*
X10622Y31303D01*
X10608Y31288D01*
X10591Y31277D01*
X10499Y31173D01*
X10404Y31071D01*
X10394Y31053D01*
X10381Y31038D01*
X10317Y30914D01*
X10250Y30793D01*
X10245Y30773D01*
X10236Y30755D01*
X10206Y30619D01*
X10171Y30485D01*
X10169Y30457D01*
X10166Y30445D01*
X10167Y30424D01*
X10161Y30324D01*
X10161Y11430D01*
X10176Y11312D01*
X10183Y11193D01*
X10196Y11155D01*
X10201Y11114D01*
X10244Y11004D01*
X10281Y10891D01*
X10303Y10856D01*
X10318Y10819D01*
X10387Y10723D01*
X10451Y10622D01*
X10481Y10594D01*
X10504Y10561D01*
X10596Y10485D01*
X10683Y10404D01*
X10718Y10384D01*
X10749Y10359D01*
X10857Y10308D01*
X10961Y10250D01*
X11001Y10240D01*
X11037Y10223D01*
X11154Y10201D01*
X11269Y10171D01*
X11329Y10167D01*
X11349Y10163D01*
X11370Y10165D01*
X11430Y10161D01*
X150370Y10161D01*
X150488Y10176D01*
G37*
G36*
X89855Y56147D02*
X89855Y56147D01*
X89954Y56150D01*
X90012Y56167D01*
X90072Y56175D01*
X90164Y56211D01*
X90259Y56239D01*
X90312Y56269D01*
X90368Y56292D01*
X90448Y56350D01*
X90533Y56400D01*
X90609Y56466D01*
X90625Y56478D01*
X90633Y56488D01*
X90654Y56506D01*
X91721Y57574D01*
X91794Y57668D01*
X91873Y57757D01*
X91891Y57793D01*
X91916Y57825D01*
X91963Y57934D01*
X92018Y58040D01*
X92026Y58080D01*
X92043Y58117D01*
X92061Y58234D01*
X92087Y58350D01*
X92086Y58391D01*
X92092Y58431D01*
X92081Y58550D01*
X92078Y58668D01*
X92066Y58707D01*
X92063Y58747D01*
X92022Y58860D01*
X91989Y58974D01*
X91969Y59009D01*
X91955Y59047D01*
X91888Y59145D01*
X91828Y59248D01*
X91788Y59293D01*
X91776Y59310D01*
X91761Y59323D01*
X91721Y59369D01*
X91693Y59397D01*
X91693Y67603D01*
X96852Y72763D01*
X96938Y72872D01*
X97026Y72979D01*
X97035Y72998D01*
X97047Y73014D01*
X97102Y73141D01*
X97162Y73267D01*
X97166Y73287D01*
X97174Y73306D01*
X97196Y73444D01*
X97222Y73580D01*
X97220Y73600D01*
X97223Y73620D01*
X97210Y73759D01*
X97202Y73897D01*
X97196Y73916D01*
X97194Y73936D01*
X97146Y74068D01*
X97104Y74199D01*
X97093Y74217D01*
X97086Y74236D01*
X97008Y74351D01*
X96934Y74468D01*
X96919Y74482D01*
X96907Y74499D01*
X96803Y74591D01*
X96702Y74686D01*
X96684Y74696D01*
X96669Y74709D01*
X96545Y74773D01*
X96423Y74840D01*
X96404Y74845D01*
X96386Y74854D01*
X96250Y74884D01*
X96116Y74919D01*
X96087Y74921D01*
X96075Y74924D01*
X96055Y74923D01*
X95955Y74929D01*
X95813Y74929D01*
X86585Y84158D01*
X86507Y84218D01*
X86434Y84286D01*
X86381Y84315D01*
X86334Y84352D01*
X86243Y84392D01*
X86156Y84440D01*
X86097Y84455D01*
X86042Y84479D01*
X85944Y84494D01*
X85848Y84519D01*
X85748Y84525D01*
X85728Y84529D01*
X85715Y84527D01*
X85687Y84529D01*
X68736Y84529D01*
X68638Y84517D01*
X68539Y84514D01*
X68480Y84497D01*
X68420Y84489D01*
X68328Y84453D01*
X68233Y84425D01*
X68181Y84395D01*
X68125Y84372D01*
X68045Y84314D01*
X67959Y84264D01*
X67884Y84198D01*
X67867Y84186D01*
X67860Y84176D01*
X67838Y84158D01*
X66506Y82825D01*
X64556Y82017D01*
X62444Y82017D01*
X60494Y82825D01*
X60456Y82864D01*
X60346Y82949D01*
X60239Y83038D01*
X60220Y83046D01*
X60204Y83059D01*
X60077Y83114D01*
X59951Y83173D01*
X59931Y83177D01*
X59912Y83185D01*
X59775Y83207D01*
X59638Y83233D01*
X59618Y83232D01*
X59598Y83235D01*
X59460Y83222D01*
X59321Y83213D01*
X59302Y83207D01*
X59282Y83205D01*
X59151Y83158D01*
X59019Y83115D01*
X59001Y83104D01*
X58982Y83097D01*
X58868Y83019D01*
X58750Y82945D01*
X58736Y82930D01*
X58719Y82919D01*
X58628Y82815D01*
X58532Y82713D01*
X58522Y82696D01*
X58509Y82680D01*
X58446Y82557D01*
X58378Y82435D01*
X58373Y82415D01*
X58364Y82397D01*
X58334Y82261D01*
X58299Y82127D01*
X58297Y82099D01*
X58294Y82087D01*
X58295Y82066D01*
X58289Y81966D01*
X58289Y74835D01*
X57024Y73570D01*
X55015Y71561D01*
X54793Y71561D01*
X54695Y71549D01*
X54596Y71546D01*
X54538Y71529D01*
X54478Y71521D01*
X54386Y71485D01*
X54291Y71457D01*
X54238Y71427D01*
X54182Y71404D01*
X54102Y71346D01*
X54017Y71296D01*
X53941Y71230D01*
X53925Y71218D01*
X53917Y71208D01*
X53896Y71189D01*
X53332Y70625D01*
X46168Y70625D01*
X45275Y71518D01*
X45275Y74556D01*
X45263Y74654D01*
X45260Y74753D01*
X45243Y74811D01*
X45235Y74871D01*
X45199Y74963D01*
X45171Y75059D01*
X45141Y75111D01*
X45118Y75167D01*
X45060Y75247D01*
X45010Y75333D01*
X44944Y75408D01*
X44932Y75424D01*
X44922Y75432D01*
X44904Y75453D01*
X44767Y75590D01*
X44432Y76169D01*
X44259Y76816D01*
X44259Y77631D01*
X49750Y77631D01*
X49868Y77646D01*
X49987Y77653D01*
X50025Y77665D01*
X50065Y77670D01*
X50176Y77714D01*
X50289Y77751D01*
X50323Y77773D01*
X50361Y77787D01*
X50457Y77857D01*
X50558Y77921D01*
X50586Y77951D01*
X50618Y77974D01*
X50694Y78066D01*
X50776Y78153D01*
X50795Y78188D01*
X50821Y78219D01*
X50872Y78327D01*
X50929Y78431D01*
X50939Y78470D01*
X50957Y78507D01*
X50979Y78624D01*
X51009Y78739D01*
X51013Y78799D01*
X51016Y78819D01*
X51016Y78820D01*
X51015Y78840D01*
X51019Y78900D01*
X51004Y79018D01*
X50997Y79137D01*
X50984Y79175D01*
X50979Y79216D01*
X50935Y79326D01*
X50899Y79440D01*
X50877Y79474D01*
X50862Y79511D01*
X50792Y79608D01*
X50728Y79708D01*
X50699Y79736D01*
X50675Y79769D01*
X50583Y79845D01*
X50497Y79926D01*
X50461Y79946D01*
X50430Y79972D01*
X50323Y80022D01*
X50218Y80080D01*
X50179Y80090D01*
X50143Y80107D01*
X50026Y80129D01*
X49910Y80159D01*
X49850Y80163D01*
X49830Y80167D01*
X49810Y80166D01*
X49750Y80169D01*
X44259Y80169D01*
X44259Y80984D01*
X44432Y81631D01*
X44767Y82210D01*
X44904Y82347D01*
X44964Y82425D01*
X45032Y82497D01*
X45061Y82550D01*
X45098Y82598D01*
X45138Y82689D01*
X45186Y82776D01*
X45201Y82834D01*
X45225Y82890D01*
X45240Y82988D01*
X45265Y83083D01*
X45271Y83183D01*
X45275Y83204D01*
X45273Y83216D01*
X45275Y83244D01*
X45275Y84556D01*
X45263Y84654D01*
X45260Y84753D01*
X45243Y84811D01*
X45235Y84871D01*
X45199Y84963D01*
X45171Y85059D01*
X45141Y85111D01*
X45118Y85167D01*
X45060Y85247D01*
X45010Y85333D01*
X44944Y85408D01*
X44932Y85424D01*
X44922Y85432D01*
X44904Y85453D01*
X44767Y85590D01*
X44432Y86169D01*
X44259Y86816D01*
X44259Y87631D01*
X49750Y87631D01*
X49868Y87646D01*
X49987Y87653D01*
X50025Y87665D01*
X50065Y87670D01*
X50176Y87714D01*
X50289Y87751D01*
X50323Y87773D01*
X50361Y87787D01*
X50457Y87857D01*
X50558Y87921D01*
X50586Y87951D01*
X50618Y87974D01*
X50694Y88066D01*
X50776Y88153D01*
X50795Y88188D01*
X50821Y88219D01*
X50872Y88327D01*
X50929Y88431D01*
X50939Y88470D01*
X50957Y88507D01*
X50979Y88624D01*
X51009Y88739D01*
X51013Y88799D01*
X51016Y88819D01*
X51016Y88820D01*
X51015Y88840D01*
X51019Y88900D01*
X51004Y89018D01*
X50997Y89137D01*
X50984Y89175D01*
X50979Y89216D01*
X50935Y89326D01*
X50899Y89440D01*
X50877Y89474D01*
X50862Y89511D01*
X50792Y89608D01*
X50728Y89708D01*
X50699Y89736D01*
X50675Y89769D01*
X50583Y89845D01*
X50497Y89926D01*
X50461Y89946D01*
X50430Y89972D01*
X50323Y90022D01*
X50218Y90080D01*
X50179Y90090D01*
X50143Y90107D01*
X50026Y90129D01*
X49910Y90159D01*
X49850Y90163D01*
X49830Y90167D01*
X49810Y90166D01*
X49750Y90169D01*
X44259Y90169D01*
X44259Y90984D01*
X44432Y91631D01*
X44767Y92210D01*
X44904Y92347D01*
X44964Y92425D01*
X45032Y92497D01*
X45061Y92550D01*
X45098Y92598D01*
X45138Y92689D01*
X45186Y92776D01*
X45201Y92834D01*
X45225Y92890D01*
X45240Y92988D01*
X45265Y93083D01*
X45271Y93183D01*
X45275Y93204D01*
X45273Y93216D01*
X45275Y93244D01*
X45275Y94556D01*
X45263Y94654D01*
X45260Y94753D01*
X45243Y94811D01*
X45235Y94871D01*
X45199Y94963D01*
X45171Y95059D01*
X45141Y95111D01*
X45118Y95167D01*
X45060Y95247D01*
X45010Y95333D01*
X44944Y95408D01*
X44932Y95424D01*
X44922Y95432D01*
X44904Y95453D01*
X44767Y95590D01*
X44432Y96169D01*
X44259Y96816D01*
X44259Y97631D01*
X49750Y97631D01*
X49868Y97646D01*
X49987Y97653D01*
X50025Y97665D01*
X50065Y97670D01*
X50176Y97714D01*
X50289Y97751D01*
X50323Y97773D01*
X50361Y97787D01*
X50457Y97857D01*
X50558Y97921D01*
X50586Y97951D01*
X50618Y97974D01*
X50694Y98066D01*
X50776Y98153D01*
X50795Y98188D01*
X50821Y98219D01*
X50872Y98327D01*
X50929Y98431D01*
X50939Y98470D01*
X50957Y98507D01*
X50979Y98624D01*
X51009Y98739D01*
X51013Y98799D01*
X51016Y98819D01*
X51016Y98820D01*
X51015Y98840D01*
X51019Y98900D01*
X51004Y99018D01*
X50997Y99137D01*
X50984Y99175D01*
X50979Y99216D01*
X50935Y99326D01*
X50899Y99440D01*
X50877Y99474D01*
X50862Y99511D01*
X50792Y99608D01*
X50728Y99708D01*
X50699Y99736D01*
X50675Y99769D01*
X50583Y99845D01*
X50497Y99926D01*
X50461Y99946D01*
X50430Y99972D01*
X50323Y100022D01*
X50218Y100080D01*
X50179Y100090D01*
X50143Y100107D01*
X50026Y100129D01*
X49910Y100159D01*
X49850Y100163D01*
X49830Y100167D01*
X49810Y100166D01*
X49750Y100169D01*
X44259Y100169D01*
X44259Y100984D01*
X44432Y101631D01*
X44767Y102210D01*
X44904Y102347D01*
X44964Y102425D01*
X45032Y102497D01*
X45061Y102550D01*
X45098Y102598D01*
X45138Y102689D01*
X45186Y102776D01*
X45201Y102834D01*
X45225Y102890D01*
X45240Y102988D01*
X45265Y103083D01*
X45271Y103183D01*
X45275Y103204D01*
X45273Y103216D01*
X45275Y103244D01*
X45275Y106282D01*
X46168Y107175D01*
X53332Y107175D01*
X53896Y106610D01*
X53974Y106550D01*
X54046Y106482D01*
X54099Y106453D01*
X54147Y106416D01*
X54238Y106376D01*
X54325Y106328D01*
X54383Y106313D01*
X54439Y106289D01*
X54537Y106274D01*
X54633Y106249D01*
X54733Y106243D01*
X54753Y106239D01*
X54765Y106241D01*
X54793Y106239D01*
X55015Y106239D01*
X55218Y106036D01*
X55257Y106005D01*
X55291Y105968D01*
X55383Y105908D01*
X55469Y105841D01*
X55515Y105821D01*
X55557Y105794D01*
X55660Y105758D01*
X55761Y105714D01*
X55810Y105707D01*
X55857Y105690D01*
X55967Y105682D01*
X56075Y105664D01*
X56125Y105669D01*
X56174Y105665D01*
X56282Y105684D01*
X56392Y105694D01*
X56439Y105711D01*
X56488Y105720D01*
X56588Y105765D01*
X56691Y105802D01*
X56732Y105830D01*
X56778Y105850D01*
X56863Y105919D01*
X56954Y105980D01*
X56987Y106018D01*
X57026Y106049D01*
X57092Y106137D01*
X57165Y106219D01*
X57187Y106263D01*
X57217Y106303D01*
X57237Y106343D01*
X57947Y107053D01*
X58020Y107147D01*
X58099Y107236D01*
X58117Y107272D01*
X58142Y107304D01*
X58189Y107414D01*
X58243Y107520D01*
X58252Y107559D01*
X58268Y107596D01*
X58287Y107714D01*
X58313Y107830D01*
X58312Y107870D01*
X58318Y107910D01*
X58307Y108029D01*
X58303Y108148D01*
X58292Y108187D01*
X58288Y108227D01*
X58248Y108339D01*
X58215Y108453D01*
X58195Y108488D01*
X58181Y108526D01*
X58114Y108625D01*
X58053Y108727D01*
X58014Y108773D01*
X58002Y108789D01*
X57987Y108803D01*
X57947Y108848D01*
X57251Y109544D01*
X56763Y110722D01*
X56749Y110747D01*
X56740Y110775D01*
X56670Y110885D01*
X56606Y110998D01*
X56585Y111019D01*
X56570Y111044D01*
X56475Y111133D01*
X56385Y111226D01*
X56359Y111242D01*
X56338Y111262D01*
X56224Y111325D01*
X56114Y111393D01*
X56085Y111401D01*
X56059Y111416D01*
X55934Y111448D01*
X55810Y111486D01*
X55780Y111488D01*
X55751Y111495D01*
X55591Y111505D01*
X46033Y111505D01*
X45935Y111493D01*
X45836Y111490D01*
X45778Y111473D01*
X45718Y111465D01*
X45626Y111429D01*
X45531Y111401D01*
X45478Y111371D01*
X45422Y111348D01*
X45342Y111290D01*
X45257Y111240D01*
X45181Y111174D01*
X45165Y111162D01*
X45157Y111152D01*
X45136Y111134D01*
X41746Y107744D01*
X41686Y107666D01*
X41618Y107594D01*
X41589Y107541D01*
X41552Y107493D01*
X41512Y107402D01*
X41464Y107315D01*
X41449Y107257D01*
X41425Y107201D01*
X41410Y107103D01*
X41385Y107007D01*
X41379Y106907D01*
X41375Y106887D01*
X41377Y106875D01*
X41375Y106847D01*
X41375Y104468D01*
X40482Y103575D01*
X36258Y103575D01*
X36140Y103560D01*
X36021Y103553D01*
X35983Y103540D01*
X35942Y103535D01*
X35832Y103492D01*
X35719Y103455D01*
X35684Y103433D01*
X35647Y103418D01*
X35551Y103349D01*
X35450Y103285D01*
X35422Y103255D01*
X35389Y103232D01*
X35313Y103140D01*
X35232Y103053D01*
X35212Y103018D01*
X35187Y102987D01*
X35136Y102879D01*
X35078Y102775D01*
X35068Y102735D01*
X35051Y102699D01*
X35029Y102582D01*
X34999Y102467D01*
X34995Y102407D01*
X34991Y102387D01*
X34993Y102366D01*
X34989Y102306D01*
X34989Y84835D01*
X32980Y82826D01*
X31493Y81339D01*
X31487Y81335D01*
X31386Y81271D01*
X31358Y81241D01*
X31325Y81218D01*
X31249Y81126D01*
X31168Y81039D01*
X31148Y81004D01*
X31123Y80973D01*
X31072Y80865D01*
X31014Y80761D01*
X31004Y80721D01*
X30987Y80685D01*
X30965Y80568D01*
X30935Y80453D01*
X30931Y80393D01*
X30927Y80373D01*
X30929Y80352D01*
X30925Y80292D01*
X30925Y73903D01*
X30937Y73805D01*
X30940Y73706D01*
X30957Y73648D01*
X30965Y73588D01*
X31001Y73496D01*
X31029Y73401D01*
X31059Y73348D01*
X31082Y73292D01*
X31140Y73212D01*
X31190Y73127D01*
X31256Y73051D01*
X31268Y73035D01*
X31278Y73027D01*
X31296Y73006D01*
X32659Y71644D01*
X32768Y71559D01*
X32875Y71470D01*
X32894Y71461D01*
X32910Y71449D01*
X33037Y71394D01*
X33163Y71334D01*
X33183Y71331D01*
X33202Y71323D01*
X33340Y71301D01*
X33476Y71275D01*
X33496Y71276D01*
X33516Y71273D01*
X33655Y71286D01*
X33793Y71294D01*
X33812Y71301D01*
X33832Y71302D01*
X33964Y71350D01*
X34095Y71392D01*
X34113Y71403D01*
X34132Y71410D01*
X34247Y71488D01*
X34364Y71563D01*
X34378Y71577D01*
X34395Y71589D01*
X34487Y71693D01*
X34582Y71794D01*
X34592Y71812D01*
X34605Y71827D01*
X34669Y71951D01*
X34736Y72073D01*
X34741Y72092D01*
X34750Y72110D01*
X34780Y72246D01*
X34815Y72381D01*
X34817Y72409D01*
X34820Y72421D01*
X34819Y72441D01*
X34825Y72541D01*
X34825Y73332D01*
X35718Y74225D01*
X40482Y74225D01*
X41375Y73332D01*
X41375Y70953D01*
X41387Y70855D01*
X41390Y70756D01*
X41407Y70698D01*
X41415Y70638D01*
X41451Y70546D01*
X41479Y70451D01*
X41509Y70398D01*
X41532Y70342D01*
X41590Y70262D01*
X41640Y70177D01*
X41706Y70101D01*
X41718Y70085D01*
X41728Y70077D01*
X41746Y70056D01*
X50665Y61138D01*
X50665Y61134D01*
X50680Y61016D01*
X50687Y60897D01*
X50700Y60859D01*
X50705Y60818D01*
X50748Y60708D01*
X50785Y60595D01*
X50807Y60560D01*
X50822Y60523D01*
X50891Y60427D01*
X50955Y60326D01*
X50985Y60298D01*
X51008Y60265D01*
X51100Y60189D01*
X51187Y60108D01*
X51222Y60088D01*
X51253Y60063D01*
X51361Y60012D01*
X51465Y59954D01*
X51505Y59944D01*
X51541Y59927D01*
X51658Y59905D01*
X51773Y59875D01*
X51833Y59871D01*
X51853Y59867D01*
X51874Y59869D01*
X51934Y59865D01*
X54002Y59865D01*
X54895Y58972D01*
X54895Y57404D01*
X54910Y57286D01*
X54917Y57167D01*
X54930Y57129D01*
X54935Y57088D01*
X54978Y56978D01*
X55015Y56865D01*
X55037Y56830D01*
X55052Y56793D01*
X55121Y56697D01*
X55185Y56596D01*
X55215Y56568D01*
X55238Y56535D01*
X55330Y56459D01*
X55417Y56378D01*
X55452Y56358D01*
X55483Y56333D01*
X55591Y56282D01*
X55695Y56224D01*
X55735Y56214D01*
X55771Y56197D01*
X55888Y56175D01*
X56003Y56145D01*
X56063Y56141D01*
X56083Y56137D01*
X56104Y56139D01*
X56164Y56135D01*
X89757Y56135D01*
X89855Y56147D01*
G37*
%LPC*%
G36*
X104139Y91439D02*
X104139Y91439D01*
X104139Y99823D01*
X106124Y99823D01*
X112523Y93424D01*
X112523Y91439D01*
X104139Y91439D01*
G37*
%LPD*%
%LPC*%
G36*
X25509Y129124D02*
X25509Y129124D01*
X25509Y131834D01*
X25682Y132481D01*
X26017Y133060D01*
X26490Y133533D01*
X27069Y133868D01*
X27716Y134041D01*
X30176Y134041D01*
X30176Y129124D01*
X25509Y129124D01*
G37*
%LPD*%
%LPC*%
G36*
X27716Y119959D02*
X27716Y119959D01*
X27069Y120132D01*
X26490Y120467D01*
X26017Y120940D01*
X25682Y121519D01*
X25509Y122166D01*
X25509Y124876D01*
X30176Y124876D01*
X30176Y119959D01*
X27716Y119959D01*
G37*
%LPD*%
D10*
X76200Y107400D03*
X76200Y95800D03*
D11*
X43900Y127000D03*
X32300Y127000D03*
D12*
X49750Y73900D03*
X49750Y78900D03*
X49750Y83900D03*
X49750Y88900D03*
X49750Y93900D03*
X49750Y98900D03*
X49750Y103900D03*
D13*
X38100Y108050D03*
D12*
X26450Y103900D03*
X26450Y98900D03*
X26450Y93900D03*
X26450Y88900D03*
X26450Y83900D03*
X26450Y78900D03*
X26450Y73900D03*
D13*
X38100Y69750D03*
D14*
X101600Y114300D03*
X127000Y114300D03*
X101600Y88900D03*
X127000Y88900D03*
X101600Y63500D03*
X127000Y63500D03*
X101600Y38100D03*
X127000Y38100D03*
D15*
X30870Y53340D03*
X47870Y53340D03*
X29600Y38100D03*
X46600Y38100D03*
D16*
X30870Y53340D02*
X29600Y52070D01*
X29600Y38100D01*
X94700Y107400D02*
X101600Y114300D01*
X94700Y107400D02*
X76200Y107400D01*
X71644Y102844D01*
X70543Y102844D01*
X50800Y93900D02*
X49750Y93900D01*
X50800Y93900D02*
X61599Y93900D01*
X70543Y102844D01*
X76200Y107400D02*
X56600Y127000D01*
X43900Y127000D01*
X50206Y74356D02*
X53857Y74356D01*
X50206Y74356D02*
X49750Y73900D01*
X51256Y93444D02*
X50800Y93900D01*
X51256Y93444D02*
X53857Y93444D01*
X55494Y91807D01*
X55494Y75993D02*
X53857Y74356D01*
X55494Y75993D02*
X55494Y91807D01*
X32194Y85993D02*
X30557Y84356D01*
X26906Y84356D01*
X26450Y83900D01*
X43900Y122501D02*
X43900Y127000D01*
X43900Y122501D02*
X32194Y110795D01*
X32194Y85993D01*
X22343Y83444D02*
X20706Y81807D01*
X25994Y83444D02*
X26450Y83900D01*
X25994Y83444D02*
X22343Y83444D01*
X20706Y81807D02*
X20706Y63504D01*
X30870Y53340D01*
X50206Y103444D02*
X49750Y103900D01*
X50206Y103444D02*
X53857Y103444D01*
X55701Y101600D02*
X63500Y101600D01*
X55701Y101600D02*
X53857Y103444D01*
X61749Y103351D02*
X63500Y101600D01*
D17*
X61749Y103351D03*
X63500Y87324D03*
D16*
X87371Y87324D01*
X96971Y77724D01*
X115824Y77724D01*
X127000Y88900D01*
X26450Y88900D02*
X25994Y88444D01*
X21595Y88444D01*
X16642Y83491D01*
X16642Y36607D01*
X26325Y26924D01*
X106229Y26924D02*
X112776Y33471D01*
X112776Y49276D02*
X127000Y63500D01*
X106229Y26924D02*
X26325Y26924D01*
X112776Y33471D02*
X112776Y49276D01*
X12578Y34923D02*
X12578Y85174D01*
X12578Y34923D02*
X24641Y22860D01*
X120613Y22860D01*
X26450Y93900D02*
X25994Y93444D01*
X127000Y38100D02*
X127000Y29247D01*
X120613Y22860D01*
X25994Y93444D02*
X20848Y93444D01*
X12578Y85174D01*
X38100Y108050D02*
X44350Y114300D01*
X63500Y114300D01*
X61750Y112550D01*
D17*
X61750Y112550D03*
X64700Y128200D03*
D16*
X113100Y128200D01*
X127000Y114300D01*
D17*
X79375Y73025D03*
D16*
X47870Y59980D02*
X38100Y69750D01*
X47870Y59980D02*
X47870Y53340D01*
X91440Y53340D01*
X101600Y63500D01*
X33556Y66794D02*
X26450Y73900D01*
X33556Y66794D02*
X33556Y65643D01*
X46600Y40159D02*
X46600Y38100D01*
X46600Y40159D02*
X39576Y47183D01*
X39576Y59623D01*
X33556Y65643D01*
X46600Y38100D02*
X101600Y38100D01*
M02*
